<svg width="200" height="200" viewBox="0 0 200 200" fill="none" xmlns="http://www.w3.org/2000/svg">
<path d="M7.28748 58.3313V41.6626C7.28748 30.7418 10.2875 22.2834 16.2875 16.2876C22.2833 10.2876 30.7416 7.2876 41.6625 7.2876H58.3312C69.2521 7.2876 77.7104 10.2876 83.7062 16.2876C89.7062 22.2834 92.7062 30.7418 92.7062 41.6626V58.3313C92.7062 69.248 89.7062 77.7063 83.7062 83.7063C77.7062 89.7063 69.2479 92.7063 58.3312 92.7063H41.6625C30.7416 92.7063 22.2833 89.7063 16.2875 83.7063C10.2875 77.7105 7.28748 69.2522 7.28748 58.3313ZM26.0375 58.3313C26.0375 64.073 27.2041 68.1126 29.5375 70.4501C31.875 72.7834 35.9166 73.9501 41.6625 73.9501H58.3312C64.0729 73.9501 68.1125 72.7834 70.45 70.4501C72.7833 68.1168 73.95 64.0751 73.95 58.3251V41.6688C73.95 35.923 72.7833 31.8813 70.45 29.5438C68.1166 27.2105 64.075 26.0438 58.325 26.0438H41.6687C35.9229 26.0438 31.8812 27.2105 29.5437 29.5438C27.2104 31.8813 26.0437 35.923 26.0437 41.6688V58.3376L26.0375 58.3313ZM107.287 58.3313V41.6626C107.287 30.7418 110.287 22.2834 116.287 16.2876C122.283 10.2876 130.742 7.2876 141.662 7.2876H158.331C169.252 7.2876 177.71 10.2876 183.706 16.2876C189.706 22.2834 192.706 30.7418 192.706 41.6626V58.3313C192.706 69.248 189.706 77.7063 183.706 83.7063C177.71 89.7063 169.252 92.7063 158.331 92.7063H141.662C130.742 92.7063 122.283 89.7063 116.287 83.7063C110.287 77.7105 107.287 69.2522 107.287 58.3313ZM126.037 58.3313C126.037 64.073 127.204 68.1126 129.537 70.4501C131.875 72.7834 135.917 73.9501 141.662 73.9501H158.331C164.073 73.9501 168.112 72.7834 170.45 70.4501C172.783 68.1168 173.95 64.0751 173.95 58.3251V41.6688C173.95 35.923 172.783 31.8813 170.45 29.5438C168.117 27.2105 164.075 26.0438 158.325 26.0438H141.662C135.917 26.0438 131.875 27.2105 129.537 29.5438C127.204 31.8813 126.037 35.923 126.037 41.6688V58.3376V58.3313ZM107.287 158.331V141.663C107.287 130.742 110.287 122.283 116.287 116.288C122.283 110.288 130.742 107.288 141.662 107.288H158.331C169.252 107.288 177.71 110.288 183.706 116.288C189.706 122.283 192.706 130.742 192.706 141.663V158.331C192.706 169.252 189.706 177.711 183.706 183.706C177.71 189.706 169.252 192.706 158.331 192.706H141.662C130.742 192.706 122.283 189.706 116.287 183.706C110.287 177.711 107.287 169.252 107.287 158.331ZM126.037 158.331C126.037 164.073 127.204 168.113 129.537 170.45C131.875 172.783 135.917 173.95 141.662 173.95H158.331C164.073 173.95 168.112 172.783 170.45 170.45C172.783 168.117 173.95 164.075 173.95 158.325V141.663C173.95 135.917 172.783 131.875 170.45 129.538C168.117 127.204 164.075 126.038 158.325 126.038H141.662C135.917 126.038 131.875 127.204 129.537 129.538C127.204 131.875 126.037 135.917 126.037 141.663V158.331ZM7.28748 158.331V141.663C7.28748 130.742 10.2875 122.283 16.2875 116.288C22.2833 110.288 30.7416 107.288 41.6625 107.288H58.3312C69.2521 107.288 77.7104 110.288 83.7062 116.288C89.7062 122.283 92.7062 130.742 92.7062 141.663V158.331C92.7062 169.252 89.7062 177.711 83.7062 183.706C77.7062 189.706 69.2479 192.706 58.3312 192.706H41.6625C30.7416 192.706 22.2833 189.706 16.2875 183.706C10.2875 177.711 7.28748 169.252 7.28748 158.331ZM26.0375 158.331C26.0375 164.073 27.2041 168.113 29.5375 170.45C31.875 172.783 35.9166 173.95 41.6625 173.95H58.3312C64.0729 173.95 68.1125 172.783 70.45 170.45C72.7833 168.117 73.95 164.075 73.95 158.325V141.663C73.95 135.917 72.7833 131.875 70.45 129.538C68.1166 127.204 64.075 126.038 58.325 126.038H41.6687C35.9229 126.038 31.8812 127.204 29.5437 129.538C27.2104 131.875 26.0437 135.917 26.0437 141.663V158.331H26.0375Z" fill="#7000FF"/>
</svg>
