<?xml version="1.0" standalone="no"?><!DOCTYPE svg PUBLIC "-//W3C//DTD SVG 1.1//EN" "http://www.w3.org/Graphics/SVG/1.1/DTD/svg11.dtd"><svg t="1713335310219" class="icon" viewBox="0 0 1024 1024" version="1.1" xmlns="http://www.w3.org/2000/svg" p-id="951" xmlns:xlink="http://www.w3.org/1999/xlink" width="200" height="200"><path d="M37.312 298.656V213.312q0-83.872 46.08-129.92 46.048-46.08 129.92-46.08h85.344q83.872 0 129.92 46.08 46.08 46.048 46.08 129.92v85.344q0 83.84-46.08 129.92-46.08 46.08-129.92 46.08H213.312q-83.872 0-129.92-46.08-46.08-46.048-46.08-129.92z m96 0q0 44.096 17.92 62.048 17.952 17.92 62.08 17.92h85.344q44.096 0 62.048-17.92 17.92-17.92 17.92-62.08V213.344q0-44.128-17.92-62.08-17.92-17.92-62.08-17.92H213.344q-44.128 0-62.08 17.92-17.92 17.952-17.92 62.08v85.344z m416 0V213.312q0-83.872 46.08-129.92 46.048-46.08 129.92-46.08h85.344q83.872 0 129.92 46.08 46.08 46.048 46.08 129.92v85.344q0 83.84-46.08 129.92-46.048 46.08-129.92 46.08h-85.344q-83.872 0-129.92-46.08-46.08-46.048-46.08-129.92z m96 0q0 44.096 17.92 62.048 17.952 17.92 62.08 17.92h85.344q44.096 0 62.048-17.92 17.92-17.92 17.92-62.08V213.344q0-44.128-17.92-62.08-17.92-17.92-62.08-17.92h-85.312q-44.128 0-62.08 17.92-17.92 17.952-17.92 62.08v85.344z m-96 512v-85.344q0-83.872 46.08-129.92 46.048-46.08 129.92-46.08h85.344q83.872 0 129.92 46.08 46.08 46.048 46.08 129.92v85.344q0 83.872-46.08 129.92-46.048 46.08-129.92 46.08h-85.344q-83.872 0-129.92-46.08-46.08-46.048-46.08-129.92z m96 0q0 44.096 17.92 62.048 17.952 17.92 62.08 17.92h85.344q44.096 0 62.048-17.92 17.92-17.92 17.92-62.08v-85.312q0-44.128-17.92-62.08-17.92-17.92-62.08-17.92h-85.312q-44.128 0-62.08 17.92-17.92 17.952-17.92 62.08v85.344z m-608 0v-85.344q0-83.872 46.08-129.92 46.048-46.08 129.92-46.08h85.344q83.872 0 129.92 46.08 46.08 46.048 46.08 129.92v85.344q0 83.872-46.08 129.92-46.08 46.08-129.92 46.08H213.312q-83.872 0-129.92-46.08-46.08-46.048-46.08-129.92z m96 0q0 44.096 17.92 62.048 17.952 17.92 62.08 17.92h85.344q44.096 0 62.048-17.92 17.92-17.92 17.92-62.08v-85.312q0-44.128-17.92-62.08-17.92-17.92-62.08-17.92H213.344q-44.128 0-62.08 17.92-17.92 17.952-17.92 62.08v85.344z" fill="#7C8394" p-id="952"></path></svg>