<svg width="200" height="200" viewBox="0 0 200 200" fill="none" xmlns="http://www.w3.org/2000/svg">
<path d="M187.5 100C187.5 148.325 148.325 187.5 100 187.5C51.675 187.5 12.5 148.325 12.5 100C12.5 51.675 51.675 12.5 100 12.5C148.325 12.5 187.5 51.675 187.5 100ZM168.75 100C168.75 91.2583 167.142 82.8229 163.925 74.6938C160.429 65.8688 155.325 58.0979 148.612 51.3812C141.904 44.6729 134.135 39.5708 125.306 36.075C117.181 32.8583 108.746 31.25 100 31.25C91.2583 31.25 82.8229 32.8583 74.6938 36.075C65.8688 39.5708 58.0979 44.675 51.3812 51.3875C44.6729 58.0958 39.5708 65.8646 36.075 74.6938C32.8583 82.8188 31.25 91.2542 31.25 100C31.25 108.742 32.8583 117.177 36.075 125.306C39.5708 134.131 44.675 141.902 51.3875 148.619C58.0958 155.327 65.8646 160.429 74.6938 163.925C82.8188 167.142 91.2542 168.75 100 168.75C108.742 168.75 117.177 167.142 125.306 163.925C134.131 160.429 141.902 155.325 148.619 148.612C155.327 141.904 160.429 134.135 163.925 125.306C167.142 117.181 168.75 108.746 168.75 100Z" fill="#7000FF"/>
<path d="M75 100C75 100.408 74.9792 100.817 74.9375 101.225C74.8958 101.633 74.8375 102.037 74.7625 102.437C74.6792 102.842 74.5792 103.237 74.4625 103.625C74.3417 104.021 74.2042 104.406 74.05 104.781C73.8917 105.16 73.7167 105.531 73.525 105.894C73.3333 106.252 73.1229 106.602 72.8938 106.944C72.6646 107.285 72.4208 107.615 72.1625 107.931C71.9042 108.248 71.6292 108.55 71.3375 108.837C71.0458 109.129 70.7438 109.404 70.4313 109.662C70.1146 109.921 69.7854 110.165 69.4438 110.394C69.1021 110.623 68.7521 110.831 68.3937 111.019C68.0312 111.215 67.6604 111.392 67.2813 111.55C66.9063 111.704 66.5229 111.842 66.1313 111.962C65.7396 112.079 65.3437 112.179 64.9437 112.262C64.5396 112.342 64.1333 112.4 63.725 112.437C63.3167 112.479 62.9083 112.5 62.5 112.5C62.0917 112.5 61.6833 112.479 61.275 112.437C60.8667 112.396 60.4625 112.337 60.0625 112.262C59.6583 112.179 59.2625 112.079 58.875 111.962C58.4792 111.842 58.0937 111.704 57.7187 111.55C57.3396 111.392 56.9688 111.217 56.6063 111.025C56.2479 110.833 55.8979 110.623 55.5562 110.394C55.2146 110.165 54.8854 109.921 54.5687 109.662C54.2521 109.404 53.95 109.129 53.6625 108.837C53.3708 108.546 53.0958 108.244 52.8375 107.931C52.5792 107.615 52.3354 107.285 52.1062 106.944C51.8771 106.602 51.6688 106.252 51.4813 105.894C51.2854 105.531 51.1083 105.16 50.95 104.781C50.7958 104.406 50.6583 104.023 50.5375 103.631C50.4208 103.24 50.3208 102.844 50.2375 102.444C50.1583 102.04 50.1 101.633 50.0625 101.225C50.0208 100.817 50 100.408 50 100C50 99.5917 50.0208 99.1833 50.0625 98.775C50.1042 98.3667 50.1625 97.9625 50.2375 97.5625C50.3208 97.1583 50.4208 96.7625 50.5375 96.375C50.6583 95.9792 50.7958 95.5937 50.95 95.2187C51.1083 94.8396 51.2833 94.4688 51.475 94.1063C51.6667 93.7479 51.8771 93.3979 52.1062 93.0562C52.3354 92.7146 52.5792 92.3854 52.8375 92.0687C53.0958 91.7521 53.3708 91.45 53.6625 91.1625C53.9542 90.8708 54.2562 90.5958 54.5687 90.3375C54.8854 90.0792 55.2146 89.8354 55.5562 89.6062C55.8979 89.3771 56.2479 89.1688 56.6063 88.9813C56.9688 88.7854 57.3396 88.6083 57.7187 88.45C58.0937 88.2958 58.4771 88.1583 58.8687 88.0375C59.2604 87.9208 59.6563 87.8208 60.0563 87.7375C60.4604 87.6583 60.8667 87.6 61.275 87.5625C61.6833 87.5208 62.0917 87.5 62.5 87.5C62.9083 87.5 63.3167 87.5208 63.725 87.5625C64.1333 87.6042 64.5375 87.6625 64.9375 87.7375C65.3417 87.8208 65.7375 87.9208 66.125 88.0375C66.5208 88.1583 66.9063 88.2958 67.2813 88.45C67.6604 88.6083 68.0312 88.7833 68.3937 88.975C68.7521 89.1667 69.1021 89.3771 69.4438 89.6062C69.7854 89.8354 70.1146 90.0792 70.4313 90.3375C70.7479 90.5958 71.05 90.8708 71.3375 91.1625C71.6292 91.4542 71.9042 91.7562 72.1625 92.0687C72.4208 92.3854 72.6646 92.7146 72.8938 93.0562C73.1229 93.3979 73.3312 93.7479 73.5187 94.1063C73.7146 94.4688 73.8917 94.8396 74.05 95.2187C74.2042 95.5937 74.3417 95.9771 74.4625 96.3687C74.5792 96.7604 74.6792 97.1563 74.7625 97.5563C74.8417 97.9604 74.9 98.3667 74.9375 98.775C74.9792 99.1833 75 99.5917 75 100ZM112.5 100C112.5 100.408 112.479 100.817 112.437 101.225C112.396 101.633 112.337 102.037 112.262 102.437C112.179 102.842 112.079 103.237 111.962 103.625C111.842 104.021 111.704 104.406 111.55 104.781C111.392 105.16 111.217 105.531 111.025 105.894C110.833 106.252 110.623 106.602 110.394 106.944C110.165 107.285 109.921 107.615 109.662 107.931C109.404 108.248 109.129 108.55 108.837 108.837C108.546 109.129 108.244 109.404 107.931 109.662C107.615 109.921 107.285 110.165 106.944 110.394C106.602 110.623 106.252 110.831 105.894 111.019C105.531 111.215 105.16 111.392 104.781 111.55C104.406 111.704 104.023 111.842 103.631 111.962C103.24 112.079 102.844 112.179 102.444 112.262C102.04 112.342 101.633 112.4 101.225 112.437C100.817 112.479 100.408 112.5 100 112.5C99.5917 112.5 99.1833 112.479 98.775 112.437C98.3667 112.396 97.9625 112.337 97.5625 112.262C97.1583 112.179 96.7625 112.079 96.375 111.962C95.9792 111.842 95.5937 111.704 95.2187 111.55C94.8396 111.392 94.4688 111.217 94.1063 111.025C93.7479 110.833 93.3979 110.623 93.0562 110.394C92.7146 110.165 92.3854 109.921 92.0687 109.662C91.7521 109.404 91.45 109.129 91.1625 108.837C90.8708 108.546 90.5958 108.244 90.3375 107.931C90.0792 107.615 89.8354 107.285 89.6062 106.944C89.3771 106.602 89.1688 106.252 88.9813 105.894C88.7854 105.531 88.6083 105.16 88.45 104.781C88.2958 104.406 88.1583 104.023 88.0375 103.631C87.9208 103.24 87.8208 102.844 87.7375 102.444C87.6583 102.04 87.6 101.633 87.5625 101.225C87.5208 100.817 87.5 100.408 87.5 100C87.5 99.5917 87.5208 99.1833 87.5625 98.775C87.6042 98.3667 87.6625 97.9625 87.7375 97.5625C87.8208 97.1583 87.9208 96.7625 88.0375 96.375C88.1583 95.9792 88.2958 95.5937 88.45 95.2187C88.6083 94.8396 88.7833 94.4688 88.975 94.1063C89.1667 93.7479 89.3771 93.3979 89.6062 93.0562C89.8354 92.7146 90.0792 92.3854 90.3375 92.0687C90.5958 91.7521 90.8708 91.45 91.1625 91.1625C91.4542 90.8708 91.7562 90.5958 92.0687 90.3375C92.3854 90.0792 92.7146 89.8354 93.0562 89.6062C93.3979 89.3771 93.7479 89.1688 94.1063 88.9813C94.4688 88.7854 94.8396 88.6083 95.2187 88.45C95.5937 88.2958 95.9771 88.1583 96.3687 88.0375C96.7604 87.9208 97.1563 87.8208 97.5563 87.7375C97.9604 87.6583 98.3667 87.6 98.775 87.5625C99.1833 87.5208 99.5917 87.5 100 87.5C100.408 87.5 100.817 87.5208 101.225 87.5625C101.633 87.6042 102.037 87.6625 102.437 87.7375C102.842 87.8208 103.237 87.9208 103.625 88.0375C104.021 88.1583 104.406 88.2958 104.781 88.45C105.16 88.6083 105.531 88.7833 105.894 88.975C106.252 89.1667 106.602 89.3771 106.944 89.6062C107.285 89.8354 107.615 90.0792 107.931 90.3375C108.248 90.5958 108.55 90.8708 108.837 91.1625C109.129 91.4542 109.404 91.7562 109.662 92.0687C109.921 92.3854 110.165 92.7146 110.394 93.0562C110.623 93.3979 110.831 93.7479 111.019 94.1063C111.215 94.4688 111.392 94.8396 111.55 95.2187C111.704 95.5937 111.842 95.9771 111.962 96.3687C112.079 96.7604 112.179 97.1563 112.262 97.5563C112.342 97.9604 112.4 98.3667 112.437 98.775C112.479 99.1833 112.5 99.5917 112.5 100ZM150 100C150 100.408 149.979 100.817 149.937 101.225C149.896 101.633 149.837 102.037 149.762 102.437C149.679 102.842 149.579 103.237 149.462 103.625C149.342 104.021 149.204 104.406 149.05 104.781C148.892 105.16 148.717 105.531 148.525 105.894C148.333 106.252 148.123 106.602 147.894 106.944C147.665 107.285 147.421 107.615 147.162 107.931C146.904 108.248 146.629 108.55 146.337 108.837C146.046 109.129 145.744 109.404 145.431 109.662C145.115 109.921 144.785 110.165 144.444 110.394C144.102 110.623 143.752 110.831 143.394 111.019C143.031 111.215 142.66 111.392 142.281 111.55C141.906 111.704 141.523 111.842 141.131 111.962C140.74 112.079 140.344 112.179 139.944 112.262C139.54 112.342 139.133 112.4 138.725 112.437C138.317 112.479 137.908 112.5 137.5 112.5C137.092 112.5 136.683 112.479 136.275 112.437C135.867 112.396 135.463 112.337 135.063 112.262C134.658 112.179 134.263 112.079 133.875 111.962C133.479 111.842 133.094 111.704 132.719 111.55C132.34 111.392 131.969 111.217 131.606 111.025C131.248 110.833 130.898 110.623 130.556 110.394C130.215 110.165 129.885 109.921 129.569 109.662C129.252 109.404 128.95 109.129 128.663 108.837C128.371 108.546 128.096 108.244 127.838 107.931C127.579 107.615 127.335 107.285 127.106 106.944C126.877 106.602 126.669 106.252 126.481 105.894C126.285 105.531 126.108 105.16 125.95 104.781C125.796 104.406 125.658 104.023 125.538 103.631C125.421 103.24 125.321 102.844 125.238 102.444C125.158 102.04 125.1 101.633 125.063 101.225C125.021 100.817 125 100.408 125 100C125 99.5917 125.021 99.1833 125.063 98.775C125.104 98.3667 125.163 97.9625 125.238 97.5625C125.321 97.1583 125.421 96.7625 125.538 96.375C125.658 95.9792 125.796 95.5937 125.95 95.2187C126.108 94.8396 126.283 94.4688 126.475 94.1063C126.667 93.7479 126.877 93.3979 127.106 93.0562C127.335 92.7146 127.579 92.3854 127.838 92.0687C128.096 91.7521 128.371 91.45 128.663 91.1625C128.954 90.8708 129.256 90.5958 129.569 90.3375C129.885 90.0792 130.215 89.8354 130.556 89.6062C130.898 89.3771 131.248 89.1688 131.606 88.9813C131.969 88.7854 132.34 88.6083 132.719 88.45C133.094 88.2958 133.477 88.1583 133.869 88.0375C134.26 87.9208 134.656 87.8208 135.056 87.7375C135.46 87.6583 135.867 87.6 136.275 87.5625C136.683 87.5208 137.092 87.5 137.5 87.5C137.908 87.5 138.317 87.5208 138.725 87.5625C139.133 87.6042 139.537 87.6625 139.937 87.7375C140.342 87.8208 140.737 87.9208 141.125 88.0375C141.521 88.1583 141.906 88.2958 142.281 88.45C142.66 88.6083 143.031 88.7833 143.394 88.975C143.752 89.1667 144.102 89.3771 144.444 89.6062C144.785 89.8354 145.115 90.0792 145.431 90.3375C145.748 90.5958 146.05 90.8708 146.337 91.1625C146.629 91.4542 146.904 91.7562 147.162 92.0687C147.421 92.3854 147.665 92.7146 147.894 93.0562C148.123 93.3979 148.331 93.7479 148.519 94.1063C148.715 94.4688 148.892 94.8396 149.05 95.2187C149.204 95.5937 149.342 95.9771 149.462 96.3687C149.579 96.7604 149.679 97.1563 149.762 97.5563C149.842 97.9604 149.9 98.3667 149.937 98.775C149.979 99.1833 150 99.5917 150 100Z" fill="#7000FF"/>
</svg>
