<?xml version="1.0" standalone="no"?><!DOCTYPE svg PUBLIC "-//W3C//DTD SVG 1.1//EN" "http://www.w3.org/Graphics/SVG/1.1/DTD/svg11.dtd"><svg t="1713337312023" class="icon" viewBox="0 0 1024 1024" version="1.1" xmlns="http://www.w3.org/2000/svg" p-id="1104" xmlns:xlink="http://www.w3.org/1999/xlink" width="200" height="200"><path d="M857.6 64H352C291.2 64 240 112 240 176v57.6H160c-60.8 0-112 51.2-112 112V864c0 60.8 51.2 112 112 112h505.6c60.8 0 112-51.2 112-112v-57.6h80c60.8 0 112-51.2 112-112V176c0-64-51.2-112-112-112z m-176 800c0 9.6-6.4 16-16 16H160c-9.6 0-16-6.4-16-16V345.6c0-9.6 6.4-16 16-16h505.6c9.6 0 16 6.4 16 16V864z m192-169.6c0 9.6-6.4 16-16 16h-80V345.6c0-60.8-51.2-112-112-112H336V176c0-9.6 6.4-16 16-16h505.6c9.6 0 16 6.4 16 16v518.4z" fill="#7C8394" p-id="1105"></path></svg>