<svg width="200" height="200" viewBox="0 0 200 200" fill="none" xmlns="http://www.w3.org/2000/svg">
<path d="M167.5 12.5H68.75C56.875 12.5 46.875 21.875 46.875 34.375V45.625H31.25C19.375 45.625 9.375 55.625 9.375 67.5V168.75C9.375 180.625 19.375 190.625 31.25 190.625H130C141.875 190.625 151.875 180.625 151.875 168.75V157.5H167.5C179.375 157.5 189.375 147.5 189.375 135.625V34.375C189.375 21.875 179.375 12.5 167.5 12.5ZM133.125 168.75C133.125 170.625 131.875 171.875 130 171.875H31.25C29.375 171.875 28.125 170.625 28.125 168.75V67.5C28.125 65.625 29.375 64.375 31.25 64.375H130C131.875 64.375 133.125 65.625 133.125 67.5V168.75ZM170.625 135.625C170.625 137.5 169.375 138.75 167.5 138.75H151.875V67.5C151.875 55.625 141.875 45.625 130 45.625H65.625V34.375C65.625 32.5 66.875 31.25 68.75 31.25H167.5C169.375 31.25 170.625 32.5 170.625 34.375V135.625Z" fill="#7000FF"/>
</svg>
