<svg width="218" height="133" viewBox="0 0 218 133" fill="none" xmlns="http://www.w3.org/2000/svg">
<rect x="43.5" y="39.5" width="136" height="60" rx="13.5" fill="#FFFA00" stroke="black"/>
<rect x="38.5" y="33.5" width="136" height="60" rx="13.5" fill="#6A0AAB" stroke="black"/>
<path d="M62.08 56.04H97.88V60.24H62.08V56.04ZM90.12 42.88L94.12 45.56C86.92 50.12 75.56 53.24 66.2 55.08C65.44 54 64 52 62.96 51.08C72.92 49.72 83.92 46.76 90.12 42.88ZM79 60.88H83.68V80.6H79V60.88ZM68.56 64.16H92.08V68.36H73.32V78.56H68.56V64.16ZM89.96 64.16H94.76V73.68C94.76 75.8 94.36 76.92 92.84 77.6C91.4 78.24 89.4 78.28 86.68 78.28C86.48 77 85.84 75.28 85.28 74.16C86.88 74.24 88.72 74.24 89.24 74.2C89.76 74.2 89.96 74.08 89.96 73.64V64.16ZM65.64 46.24L68.96 43.4C77.28 45.32 89 49 95.44 51.96L91.76 55.28C86 52.44 74.36 48.44 65.64 46.24ZM75.52 51.48L80.4 52.8C77.2 60.48 71.76 67.88 64.12 72.16C63.4 71.08 61.92 69.4 60.92 68.52C68.12 64.84 73.24 58 75.52 51.48ZM114.4 46.04H149.48V50.12H114.4V46.04ZM116.96 52.56H147.68V56.6H116.96V52.56ZM120.64 66.92H143.8V70.96H120.64V66.92ZM120.76 58.8H147.08V73.08H142.28V62.72H120.76V58.8ZM117.6 58.8H122.36V63.84C122.36 68.96 121.36 76.24 116.48 80.8C115.76 79.88 113.76 78.16 112.72 77.56C117.12 73.52 117.6 67.88 117.6 63.76V58.8ZM129.44 43H134.32V54.72H129.44V43ZM129.6 60.16H134.24V69.44H129.6V60.16Z" fill="white"/>
</svg>
