<?xml version="1.0" standalone="no"?><!DOCTYPE svg PUBLIC "-//W3C//DTD SVG 1.1//EN" "http://www.w3.org/Graphics/SVG/1.1/DTD/svg11.dtd"><svg t="1713335329423" class="icon" viewBox="0 0 1024 1024" version="1.1" xmlns="http://www.w3.org/2000/svg" p-id="1254" xmlns:xlink="http://www.w3.org/1999/xlink" width="200" height="200"><path d="M250.624 298.656q0-108.256 76.544-184.8 76.544-76.544 184.8-76.544 108.224 0 184.768 76.544t76.544 184.8q0 108.224-76.544 184.768T512 560q-108.256 0-184.8-76.544-76.544-76.544-76.544-184.768z m96 0q0 68.48 48.416 116.896Q443.52 463.968 512 463.968q68.48 0 116.896-48.416t48.416-116.896q0-68.48-48.416-116.928Q580.48 133.312 512 133.312t-116.928 48.416q-48.416 48.448-48.416 116.928z m-249.12 640q0-72.512 34.24-138.432 32.384-62.4 90.88-110.016 57.312-46.72 131.168-72.128Q429.44 592 512 592q82.56 0 158.208 26.08 73.856 25.408 131.2 72.128 58.464 47.584 90.88 110.016 34.24 65.92 34.24 138.432a48 48 0 0 1-96 0q0-100.96-89.728-174.016-44.128-35.936-101.824-55.808Q578.496 688 512 688q-66.464 0-126.944 20.8-57.728 19.904-101.824 55.84-89.728 73.056-89.728 174.016a48 48 0 0 1-96 0z" fill="#7C8394" p-id="1255"></path></svg>