<svg width="200" height="200" viewBox="0 0 200 200" fill="none" xmlns="http://www.w3.org/2000/svg">
<path d="M48.95 58.3313C48.95 44.2355 53.9333 32.2043 63.9 22.2376C73.8667 12.2709 85.8979 7.2876 99.9938 7.2876C114.085 7.2876 126.115 12.2709 136.081 22.2376C146.048 32.2043 151.031 44.2355 151.031 58.3313C151.031 72.423 146.048 84.4522 136.081 94.4188C126.115 104.386 114.088 109.371 100 109.375C85.9042 109.375 73.8729 104.392 63.9063 94.4251C53.9396 84.4584 48.9563 72.4293 48.9563 58.3376L48.95 58.3313ZM67.7 58.3313C67.7 67.248 70.8521 74.8584 77.1563 81.1626C83.4688 87.4668 91.0833 90.6188 100 90.6188C108.917 90.6188 116.527 87.4668 122.831 81.1626C129.135 74.8584 132.288 67.248 132.288 58.3313C132.288 49.4147 129.135 41.8022 122.831 35.4938C116.527 29.1897 108.917 26.0376 100 26.0376C91.0833 26.0376 83.4708 29.1897 77.1625 35.4938C70.8583 41.8022 67.7063 49.4147 67.7063 58.3313H67.7ZM19.0438 183.331C19.0438 173.89 21.2729 164.877 25.7313 156.294C29.9479 148.169 35.8646 141.006 43.4813 134.806C50.9438 128.723 59.4833 124.027 69.1 120.719C78.95 117.323 89.25 115.625 100 115.625C110.75 115.625 121.05 117.323 130.9 120.719C140.517 124.027 149.058 128.723 156.525 134.806C164.138 141.002 170.054 148.165 174.275 156.294C178.733 164.877 180.963 173.89 180.963 183.331C180.963 185.818 179.975 188.202 178.217 189.96C176.458 191.719 174.074 192.706 171.588 192.706C169.101 192.706 166.717 191.719 164.958 189.96C163.2 188.202 162.213 185.818 162.213 183.331C162.213 170.186 156.371 158.856 144.688 149.344C138.942 144.665 132.313 141.031 124.8 138.444C116.925 135.731 108.658 134.375 100 134.375C91.3458 134.375 83.0813 135.729 75.2063 138.438C67.6896 141.029 61.0604 144.665 55.3188 149.344C43.6354 158.856 37.7938 170.186 37.7938 183.331C37.7938 185.818 36.806 188.202 35.0479 189.96C33.2897 191.719 30.9052 192.706 28.4188 192.706C25.9324 192.706 23.5478 191.719 21.7896 189.96C20.0315 188.202 19.0438 185.818 19.0438 183.331Z" fill="#7000FF"/>
</svg>
