<?xml version="1.0" standalone="no"?><!DOCTYPE svg PUBLIC "-//W3C//DTD SVG 1.1//EN" "http://www.w3.org/Graphics/SVG/1.1/DTD/svg11.dtd"><svg t="1719285301945" class="icon" viewBox="0 0 1032 1024" version="1.1" xmlns="http://www.w3.org/2000/svg" p-id="18842" xmlns:xlink="http://www.w3.org/1999/xlink" width="201.5625" height="200"><path d="M798.884391 722.017502a50.502968 50.502968 0 0 1 0-101.005936 132.923812 132.923812 0 1 0-20.832475-264.206278 50.502968 50.502968 0 0 1-58.356179-50.502968v-1.818107a203.451207 203.451207 0 0 0-406.877163 0v1.691849a50.502968 50.502968 0 0 1-58.078413 50.300957 132.923812 132.923812 0 1 0-19.999176 264.332535 50.502968 50.502968 0 1 1 0 101.005936 233.929748 233.929748 0 0 1-18.963864-467.152455 304.482395 304.482395 0 0 1 600.758057 0 233.929748 233.929748 0 0 1-17.676039 467.152455z" fill="#0D0A16" opacity=".82" p-id="18843"></path><path d="M360.21561 879.460505l136.358014 136.358014a27.776632 27.776632 0 0 0 39.215554 0l136.358014-136.358014a27.776632 27.776632 0 0 0-19.595151-47.346532 27.776632 27.776632 0 0 1-27.776633-27.776633V521.924742a27.776632 27.776632 0 0 0-27.776632-27.776632H435.26302a27.776632 27.776632 0 0 0-27.776632 27.776632v282.463101a27.776632 27.776632 0 0 1-27.776633 27.776633 27.776632 27.776632 0 0 0-19.494145 47.296029z" fill="#FF6464" p-id="18844"></path></svg>